<?xml version="1.0" encoding="UTF-8"?>
<svg width="384px" height="64px" viewBox="0 0 384 64" version="1.1" xmlns="http://www.w3.org/2000/svg" xmlns:xlink="http://www.w3.org/1999/xlink">
    <title>DEPLOY-V2_SpecialUse-SmHoriz_Color_DarkMode</title>
    <g id="DEPLOY-V2_SpecialUse-SmHoriz_Color_DarkMode" stroke="none" stroke-width="1" fill="none" fill-rule="evenodd">
        <path d="M34.083,63.481 L26.32,55.717 L44.222,37.815 C45.711,36.326 46.53,34.346 46.53,32.241 C46.53,30.136 45.71,28.156 44.222,26.667 L26.32,8.765 L34.083,1 L51.985,18.902 C55.548,22.465 57.51,27.202 57.51,32.24 C57.51,37.278 55.548,42.016 51.985,45.579 L34.083,63.48 L34.083,63.481 Z" id="Path" fill="#0C8FD6" fill-rule="nonzero"></path>
        <g id="Group" transform="translate(78.647, 17.971)" fill-rule="nonzero">
            <path d="M23.039,22.091 C21.995,24.17 20.546,25.768 18.688,26.885 C16.83,27.997 14.708,28.555 12.33,28.555 C9.914,28.555 7.772,27.997 5.91,26.885 C4.043,25.768 2.594,24.171 1.559,22.091 C0.519,20.012 0,17.577 0,14.79 L0,13.779 C0,10.992 0.52,8.557 1.559,6.478 C2.594,4.399 4.042,2.801 5.9,1.68 C7.758,0.559 9.885,0 12.291,0 C14.669,0 16.796,0.558 18.658,1.68 C20.52,2.802 21.979,4.399 23.028,6.478 C24.077,8.557 24.602,10.992 24.602,13.779 L24.602,14.79 C24.602,17.577 24.082,20.012 23.038,22.091 L23.039,22.091 Z M16.027,7.855 C15.151,6.498 13.909,5.819 12.292,5.819 C8.947,5.819 7.277,8.461 7.277,13.741 L7.277,14.79 C7.277,17.36 7.696,19.328 8.543,20.7 C9.39,22.067 10.651,22.75 12.331,22.75 C13.938,22.75 15.171,22.057 16.037,20.671 C16.903,19.285 17.336,17.321 17.336,14.79 L17.336,13.741 C17.336,11.171 16.893,9.207 16.027,7.855 Z" id="Shape" fill="#0C8FD6"></path>
            <polygon id="Path" fill="#0C8FD6" points="55.848 6.147 47.57 6.147 47.57 28.17 40.428 28.17 40.428 6.147 32.357 6.147 32.357 0.381 55.848 0.381"></polygon>
            <polygon id="Path" fill="#0C8FD6" points="87.766 6.147 79.483 6.147 79.483 28.17 72.346 28.17 72.346 6.147 64.27 6.147 64.27 0.381 87.766 0.381"></polygon>
            <path d="M118.25,22.091 C117.206,24.17 115.757,25.768 113.899,26.885 C112.041,27.997 109.924,28.555 107.541,28.555 C105.125,28.555 102.983,27.997 101.121,26.885 C99.258,25.768 97.805,24.171 96.765,22.091 C95.73,20.012 95.215,17.577 95.215,14.79 L95.215,13.779 C95.215,10.992 95.73,8.557 96.765,6.478 C97.805,4.399 99.248,2.801 101.111,1.68 C102.969,0.559 105.101,0 107.507,0 C109.885,0 112.002,0.558 113.869,1.68 C115.732,2.801 117.19,4.399 118.239,6.478 C119.288,8.557 119.813,10.992 119.813,13.779 L119.813,14.79 C119.813,17.577 119.293,20.012 118.249,22.091 L118.25,22.091 Z M111.233,7.855 C110.367,6.498 109.12,5.819 107.508,5.819 C104.158,5.819 102.483,8.461 102.483,13.741 L102.483,14.79 C102.483,17.36 102.907,19.328 103.754,20.7 C104.601,22.067 105.862,22.75 107.542,22.75 C109.145,22.75 110.382,22.057 111.243,20.671 C112.109,19.285 112.542,17.321 112.542,14.79 L112.542,13.741 C112.542,11.171 112.109,9.207 111.233,7.855 Z" id="Shape" fill="#0C8FD6"></path>
            <path d="M145.404,2.099 C147.368,3.244 148.908,4.837 150.024,6.873 C151.131,8.909 151.689,11.204 151.689,13.76 L151.689,14.809 C151.689,17.369 151.14,19.66 150.033,21.691 C148.926,23.722 147.396,25.305 145.451,26.451 C143.502,27.596 141.312,28.169 138.886,28.169 L129.607,28.169 L129.607,0.38 L138.713,0.38 C141.206,0.38 143.434,0.953 145.403,2.098 L145.404,2.099 Z M144.403,13.722 C144.403,11.229 143.917,9.342 142.95,8.062 C141.983,6.787 140.572,6.147 138.715,6.147 L136.727,6.147 L136.727,22.429 L138.888,22.429 C140.654,22.429 142.016,21.789 142.969,20.518 C143.922,19.247 144.403,17.342 144.403,14.81 L144.403,13.722 L144.403,13.722 Z" id="Shape" fill="#0FC0E6"></path>
            <polygon id="Path" fill="#0FC0E6" points="168.601 6.147 168.601 11.167 178.929 11.167 178.929 16.702 168.601 16.702 168.601 22.429 180.835 22.429 180.835 28.171 161.488 28.171 161.488 0.382 180.912 0.382 180.912 6.148 168.601 6.148"></polygon>
            <path d="M206.911,1.632 C208.567,2.465 209.837,3.615 210.732,5.088 C211.618,6.556 212.07,8.221 212.07,10.079 C212.07,11.86 211.618,13.438 210.732,14.81 C209.837,16.186 208.571,17.255 206.92,18.015 C205.274,18.78 203.349,19.16 201.149,19.16 L197.063,19.16 L197.063,28.17 L189.945,28.17 L189.945,0.381 L201.149,0.381 C203.339,0.381 205.259,0.8 206.91,1.632 L206.911,1.632 Z M203.937,12.49 C204.548,11.898 204.851,11.109 204.851,10.117 C204.851,8.972 204.543,8.023 203.917,7.273 C203.291,6.523 202.367,6.147 201.15,6.147 L197.064,6.147 L197.064,13.381 L201.15,13.381 C202.397,13.381 203.325,13.083 203.937,12.491 L203.937,12.49 Z" id="Shape" fill="#0FC0E6"></path>
            <polygon id="Path" fill="#0FC0E6" points="240.716 22.428 240.716 28.17 222.148 28.17 222.148 0.381 229.266 0.381 229.266 22.428"></polygon>
            <path d="M270.878,22.091 C269.834,24.17 268.385,25.768 266.527,26.885 C264.669,27.997 262.547,28.555 260.169,28.555 C257.753,28.555 255.611,27.997 253.749,26.885 C251.882,25.768 250.433,24.171 249.398,22.091 C248.358,20.012 247.839,17.577 247.839,14.79 L247.839,13.779 C247.839,10.992 248.359,8.557 249.398,6.478 C250.433,4.399 251.881,2.801 253.739,1.68 C255.597,0.559 257.724,0 260.13,0 C262.508,0 264.635,0.558 266.497,1.68 C268.359,2.802 269.818,4.399 270.867,6.478 C271.916,8.557 272.441,10.992 272.441,13.779 L272.441,14.79 C272.441,17.577 271.921,20.012 270.877,22.091 L270.878,22.091 Z M263.866,7.855 C262.99,6.498 261.748,5.819 260.131,5.819 C256.786,5.819 255.116,8.461 255.116,13.741 L255.116,14.79 C255.116,17.36 255.535,19.328 256.382,20.7 C257.229,22.067 258.49,22.75 260.17,22.75 C261.777,22.75 263.01,22.057 263.876,20.671 C264.742,19.285 265.175,17.321 265.175,14.79 L265.175,13.741 C265.175,11.171 264.732,9.207 263.866,7.855 Z" id="Shape" fill="#0FC0E6"></path>
            <polygon id="Path" fill="#0FC0E6" points="296.742 0.381 304.399 0.381 295.543 18.304 295.543 28.17 288.285 28.17 288.285 18.304 279.41 0.381 287.062 0.381 291.913 11.946 296.74 0.381"></polygon>
        </g>
        <path d="M7.763,63.481 L0,55.718 L17.901,37.816 C19.39,36.326 20.209,34.346 20.209,32.241 C20.209,30.136 19.389,28.156 17.901,26.667 L0,8.765 L7.763,1.002 L25.664,18.904 C29.227,22.466 31.189,27.203 31.189,32.242 C31.189,37.281 29.227,42.018 25.664,45.581 L7.763,63.482 L7.763,63.481 Z" id="Path" fill="#0FC0E6" fill-rule="nonzero"></path>
    </g>
</svg>