<?xml version="1.0" encoding="UTF-8"?>
<svg width="306px" height="64px" viewBox="0 0 306 64" version="1.1" xmlns="http://www.w3.org/2000/svg" xmlns:xlink="http://www.w3.org/1999/xlink">
    <title>FMS-V2_SpecialUse-SmHoriz_Color_LightMode</title>
    <g id="FMS-V2_SpecialUse-SmHoriz_Color_LightMode" stroke="none" stroke-width="1" fill="none" fill-rule="evenodd">
        <g id="Group" transform="translate(85.712, 17.614)" fill-rule="nonzero">
            <path d="M23.037,22.091 C21.993,24.17 20.544,25.768 18.686,26.885 C16.828,27.997 14.708,28.555 12.328,28.555 C9.912,28.555 7.77,27.997 5.908,26.885 C4.043,25.768 2.592,24.171 1.555,22.091 C0.518,20.011 0,17.577 0,14.79 L0,13.779 C0,10.992 0.517,8.557 1.555,6.478 C2.593,4.399 4.038,2.801 5.899,1.68 C7.757,0.559 9.886,0 12.293,0 C14.671,0 16.793,0.558 18.658,1.68 C20.521,2.801 21.979,4.399 23.028,6.478 C24.077,8.557 24.602,10.992 24.602,13.779 L24.602,14.79 C24.602,17.577 24.082,20.012 23.038,22.091 L23.037,22.091 Z M16.022,7.855 C15.151,6.498 13.907,5.819 12.292,5.819 C8.945,5.819 7.272,8.461 7.272,13.741 L7.272,14.79 C7.272,17.36 7.693,19.328 8.54,20.7 C9.387,22.067 10.648,22.75 12.328,22.75 C13.933,22.75 15.168,22.057 16.031,20.671 C16.897,19.285 17.33,17.321 17.33,14.79 L17.33,13.741 C17.33,11.171 16.892,9.207 16.021,7.855 L16.022,7.855 Z" id="Shape" fill="#0A76B1"></path>
            <polygon id="Path" fill="#0A76B1" points="55.849 6.146 47.566 6.146 47.566 28.169 40.429 28.169 40.429 6.146 32.356 6.146 32.356 0.38 55.85 0.38 55.85 6.146"></polygon>
            <polygon id="Path" fill="#0A76B1" points="87.764 6.146 79.481 6.146 79.481 28.169 72.344 28.169 72.344 6.146 64.271 6.146 64.271 0.38 87.765 0.38 87.765 6.146"></polygon>
            <path d="M118.249,22.091 C117.205,24.17 115.756,25.768 113.898,26.885 C112.04,27.997 109.92,28.555 107.54,28.555 C105.124,28.555 102.982,27.997 101.12,26.885 C99.255,25.768 97.804,24.171 96.767,22.091 C95.73,20.011 95.212,17.577 95.212,14.79 L95.212,13.779 C95.212,10.992 95.729,8.557 96.767,6.478 C97.805,4.399 99.25,2.801 101.111,1.68 C102.969,0.559 105.098,0 107.505,0 C109.883,0 112.005,0.558 113.87,1.68 C115.733,2.801 117.191,4.399 118.24,6.478 C119.289,8.557 119.814,10.992 119.814,13.779 L119.814,14.79 C119.814,17.577 119.294,20.012 118.25,22.091 L118.249,22.091 Z M111.234,7.855 C110.363,6.498 109.119,5.819 107.504,5.819 C104.157,5.819 102.484,8.461 102.484,13.741 L102.484,14.79 C102.484,17.36 102.905,19.328 103.752,20.7 C104.599,22.067 105.86,22.75 107.54,22.75 C109.145,22.75 110.38,22.057 111.243,20.671 C112.109,19.285 112.542,17.321 112.542,14.79 L112.542,13.741 C112.542,11.171 112.104,9.207 111.233,7.855 L111.234,7.855 Z" id="Shape" fill="#0A76B1"></path>
            <polygon id="Path" fill="#0EB3D6" points="136.725 6.146 136.725 11.681 147.453 11.681 147.453 17.427 136.725 17.427 136.725 28.169 129.607 28.169 129.607 0.38 148.425 0.38 148.425 6.146 136.725 6.146"></polygon>
            <polygon id="Path" fill="#0EB3D6" points="187.938 28.17 180.801 28.17 180.801 22.924 181.487 8.799 175.093 28.17 170.437 28.17 164.043 8.799 164.748 22.924 164.748 28.17 157.611 28.17 157.611 0.381 166.981 0.381 172.766 18.819 178.549 0.381 187.939 0.381 187.939 28.17"></polygon>
            <path d="M203.266,14.896 C201.904,14.15 200.787,13.202 199.916,12.042 C199.045,10.887 198.609,9.491 198.609,7.865 C198.609,6.262 199.076,4.867 200.012,3.683 C200.946,2.499 202.24,1.589 203.896,0.954 C205.549,0.319 207.414,0.001 209.488,0.001 C211.509,0.001 213.312,0.343 214.888,1.031 C216.467,1.719 217.703,2.715 218.601,4.02 C219.499,5.325 219.946,6.879 219.946,8.684 L212.847,8.684 C212.847,7.746 212.544,6.995 211.94,6.441 C211.336,5.887 210.46,5.613 209.315,5.613 C208.552,5.613 207.898,5.719 207.349,5.935 C206.803,6.152 206.389,6.436 206.11,6.787 C205.828,7.134 205.689,7.519 205.689,7.942 C205.689,8.64 206.093,9.237 206.902,9.732 C207.711,10.227 208.947,10.752 210.615,11.301 C213.681,12.292 216,13.525 217.572,15.002 C219.144,16.479 219.928,18.361 219.928,20.652 C219.928,22.332 219.502,23.761 218.65,24.945 C217.796,26.129 216.595,27.024 215.043,27.635 C213.491,28.246 211.664,28.554 209.564,28.554 C207.516,28.554 205.598,28.212 203.81,27.529 C202.022,26.85 200.569,25.787 199.45,24.333 C198.329,22.884 197.77,21.065 197.77,18.875 L204.927,18.875 C204.927,19.905 205.095,20.718 205.432,21.32 C205.769,21.917 206.274,22.34 206.95,22.586 C207.624,22.836 208.495,22.961 209.563,22.961 C210.67,22.961 211.488,22.74 212.018,22.302 C212.545,21.864 212.81,21.325 212.81,20.69 C212.81,20.141 212.694,19.679 212.466,19.304 C212.238,18.929 211.787,18.558 211.121,18.187 C210.452,17.821 209.456,17.412 208.135,16.965 C206.251,16.33 204.629,15.641 203.267,14.896 L203.266,14.896 Z" id="Path" fill="#0EB3D6"></path>
        </g>
        <g id="Group" transform="translate(0.04, 0.651)" fill-rule="nonzero">
            <rect id="Rectangle" fill="#0EB3D6" x="19.244" y="19.243" width="23.995" height="23.995" rx="3.839"></rect>
            <g transform="translate(0, -0)" fill="#0A76B1">
                <g id="uuid-8c88eed5-d7ef-49dc-8126-5263b82fc499" transform="translate(-0, 0)">
                    <path d="M0,47.88 L0,20.443 C0,9.171 9.171,0 20.443,0 L47.881,0 C47.881,0 47.881,11.901 47.881,11.901 L20.443,11.901 C15.732,11.901 11.9,15.732 11.9,20.444 L11.9,47.882 C11.9,47.882 0,47.882 0,47.882 L0,47.88 Z" id="Path"></path>
                </g>
                <g id="uuid-0a81b11c-aa8a-4ebc-8c3f-012638c6ee52" transform="translate(14.602, 14.601)">
                    <path d="M0,47.879 L0,35.98 C0,35.98 27.438,35.98 27.438,35.98 C32.149,35.98 35.981,32.148 35.98,27.437 L35.98,0.001 C35.98,0.001 47.879,0 47.879,0 L47.879,27.437 C47.879,38.71 38.709,47.88 27.437,47.881 L0,47.879 L0,47.879 Z" id="Path"></path>
                </g>
            </g>
        </g>
    </g>
</svg>