<?xml version="1.0" encoding="UTF-8"?>
<svg width="182px" height="40px" viewBox="0 0 182 40" version="1.1" xmlns="http://www.w3.org/2000/svg" xmlns:xlink="http://www.w3.org/1999/xlink">
    <title>logo-for-light-hz</title>
    <defs>
        <linearGradient x1="11.5417091%" y1="67.630926%" x2="75.8513733%" y2="38.0599531%" id="linearGradient-1">
            <stop stop-color="#FF595E" offset="0%"></stop>
            <stop stop-color="#89236B" offset="99.14%"></stop>
        </linearGradient>
    </defs>
    <g id="logo-for-light-hz" stroke="none" stroke-width="1" fill="none" fill-rule="evenodd">
        <g id="Group" fill-rule="nonzero">
            <g id="Geist-Group">
                <path d="M3.17522626,13.6315179 L3.24821996,13.6315179 C4.79933624,11.5751766 7.09863801,10.4651163 9.67166618,10.4651163 C15.1461942,10.4651163 18.5951469,15.1601255 18.5951469,20.3100775 C18.5951469,25.6056112 15.2191879,30.0640502 9.63516933,30.0640502 C7.09863801,30.0640502 4.76283939,28.9539899 3.24821996,26.934044 L3.17522626,26.934044 L3.17522626,40 L0,40 L0,10.9928499 L3.17522626,10.9928499 L3.17522626,13.6315179 Z M3.01099042,20.0735073 C3.01099042,23.7130493 5.14605635,27.1524166 9.10596495,27.1524166 C13.1936125,27.1524166 15.3286785,23.8768287 15.3286785,20.1099027 C15.3286785,16.3975698 12.9928799,13.3949476 9.0694681,13.3949476 C5.38328589,13.3949476 3.01099042,16.5977446 3.01099042,20.0735073 Z" id="Shape" fill="#950B6E"></path>
                <path d="M26.2018381,12.9919968 L26.2747602,12.9919968 C27.3868229,11.5376771 28.3348108,10.4651163 30.3948614,10.4651163 C31.470463,10.4651163 32.3272982,10.8286962 33.238825,11.3377081 L31.7256905,14.2281686 C31.0876218,13.7918727 30.6500889,13.3919347 29.8297148,13.3919347 C26.3476824,13.3919347 26.1836075,17.8457889 26.1836075,20.2635955 L26.1836075,29.5348837 L23.0114943,29.5348837 L23.0114943,10.9923072 L26.1836075,10.9923072 L26.1836075,12.9919968 L26.2018381,12.9919968 Z" id="Path" fill="#950B6E"></path>
                <path d="M77.0204656,29.5348837 L73.8093755,29.5348837 L73.8093755,13.8279443 L72.0561941,13.8279443 L72.0561941,10.8908744 L73.82783,10.8908744 L73.82783,7.16936955 C73.82783,5.61874255 73.82783,3.68501946 74.6767389,2.33506184 C75.7101932,0.674978813 77.6110109,0 79.5302832,0 C80.2869193,0 81.0620101,0.164184036 81.8186462,0.401338753 L81.8186462,3.61204878 C81.0989191,3.37489406 80.4530102,3.17422469 79.659465,3.17422469 C77.0573747,3.17422469 77.0573747,4.99849175 77.0573747,8.28217246 L77.0573747,10.909117 L81.8186462,10.909117 L81.8186462,13.846187 L77.0573747,13.846187 L77.0573747,29.5348837 L77.0204656,29.5348837 Z" id="Path" fill="#950B6E"></path>
                <path d="M59.621872,10.2325581 C56.6348018,10.2325581 53.7760108,11.5137749 51.9617781,13.8931774 C50.0375918,16.4190048 50.0559174,17.8100401 49.7443825,20.1345334 C49.2129406,23.9232744 46.7389868,26.4674048 43.3487538,26.4674048 C39.8302418,26.4674048 36.9714508,23.6121217 36.9714508,20.0979272 C36.9714508,16.5837326 39.8302418,13.7284496 43.3487538,13.7284496 C44.9980564,13.7284496 46.8306147,14.3324518 48.1867079,15.9797305 C48.6081963,14.8266354 49.194615,13.7467527 49.9276383,12.7949917 C47.8568474,11.0195913 45.5661494,10.2508612 43.3487538,10.2508612 C37.9060556,10.2508612 33.4712644,14.6802106 33.4712644,20.1162303 C33.4712644,25.55225 37.9060556,29.9815993 43.3487538,29.9815993 C46.2258704,29.9815993 49.0663359,28.590564 51.0088477,26.3392831 C52.4382432,24.6920044 52.933034,22.8433917 53.2079177,20.6104139 C53.7027085,16.5105203 55.9934064,13.7833589 59.6401975,13.7650558 C63.1587096,13.7467527 66.0175006,16.6203388 66.0175006,20.1345334 C66.0175006,23.6487279 63.1587096,26.504011 59.6401975,26.504011 C57.990895,26.504011 56.1766623,25.8267964 54.8022435,24.2710332 C54.3807551,25.4058252 53.7760108,26.504011 53.0613131,27.455772 C53.0613131,27.455772 55.7001971,30.0182055 59.621872,30 C65.0645702,29.9632962 69.4993614,25.570553 69.4993614,20.1345334 C69.4810358,14.6619075 65.0645702,10.2325581 59.621872,10.2325581 Z" id="Path" fill="url(#linearGradient-1)"></path>
            </g>
            <polygon id="Path" fill="#FF4757" points="102.458067 21.6007987 94.319436 21.6007987 94.319436 29.7435897 91.1009773 29.7435897 91.1009773 21.6007987 82.9808429 21.6007987 82.9808429 18.380695 91.1009773 18.380695 91.1009773 10.2564103 94.319436 10.2564103 94.319436 18.380695 102.458067 18.380695"></polygon>
            <g id="ProofGroup" transform="translate(106.2248, 4.186)" fill="#950B6E">
                <path d="M18.5768805,24.4328253 C18.5768805,27.4297944 18.5768805,30.0222647 16.6771799,32.504417 C14.92361,34.7475473 12.2384562,35.8139535 9.46197061,35.8139535 C4.27432649,35.8139535 0.420126108,32.504417 0.29226164,27.1907724 L3.47060698,27.1907724 C3.50713968,30.6657857 6.00962998,32.853757 9.4254379,32.853757 C14.3390867,32.853757 15.4168015,29.2132669 15.4168015,24.9844147 L15.4168015,22.7412845 L15.3437361,22.7412845 C13.8276289,24.6902337 11.3799376,25.8485715 8.87744733,25.8485715 C3.45234063,25.8485715 0,21.251993 0,16.03028 C0,10.7534079 3.48887333,6.04651163 9.0053118,6.04651163 C11.5808675,6.04651163 13.8458952,7.20484939 15.3437361,9.24573021 L15.4168015,9.24573021 L15.4168015,6.57971472 L18.5951469,6.57971472 L18.5951469,24.4328253 L18.5768805,24.4328253 Z M3.2331444,15.7728716 C3.2331444,19.4501343 5.37030764,22.9251476 9.33410614,22.9251476 C13.4257691,22.9251476 15.5629324,19.6156111 15.5629324,15.8096442 C15.5629324,12.0588362 13.2248392,9.02509445 9.29757344,9.02509445 C5.60777023,9.02509445 3.2331444,12.2610857 3.2331444,15.7728716 Z" id="Shape"></path>
                <path d="M25.5458544,16.6087069 C25.5823705,20.0744272 28.0472097,22.8616732 31.6440492,22.8616732 C34.3462434,22.8616732 36.0807599,21.2296673 37.3223085,18.9925357 L40.0245027,20.551193 C38.235212,23.8885533 35.2226307,25.8139535 31.4249524,25.8139535 C25.8744996,25.8139535 22.3141762,21.5597359 22.3141762,16.1686154 C22.3141762,10.6307978 25.5275963,6.04651163 31.3519201,6.04651163 C37.3405666,6.04651163 40.5174705,11.0158778 40.1888253,16.5903698 L25.5458544,16.5903698 L25.5458544,16.6087069 Z M36.8475987,13.8948095 C36.4094051,11.1809121 34.1454046,8.99879191 31.3701782,8.99879191 C28.6314679,8.99879191 26.0935964,11.1809121 25.6919189,13.8948095 L36.8475987,13.8948095 Z" id="Shape"></path>
                <polygon id="Path" points="47.6500639 25.3488372 44.3959132 25.3488372 44.3959132 6.04651163 47.6500639 6.04651163"></polygon>
                <path d="M60.8282202,10.896516 C60.3930147,9.90446961 59.4500693,8.98590819 58.3076547,8.98590819 C57.2015072,8.98590819 56.0228255,9.86772715 56.0228255,11.061857 C56.0228255,12.7703813 58.1444526,13.4133743 60.3204804,14.3319357 C62.4783747,15.2504971 64.6181354,16.5732256 64.6181354,19.7147056 C64.6181354,23.2603527 61.7892992,25.8139535 58.3620554,25.8139535 C55.2430822,25.8139535 52.8131844,24.0135731 51.8339719,21.0741765 L54.6265409,19.8800467 C55.4062842,21.6436846 56.3129625,22.8745569 58.3983225,22.8745569 C60.0847441,22.8745569 61.3903608,21.7171695 61.3903608,20.0086453 C61.3903608,15.8200052 53.0489208,17.252961 53.0489208,11.3557967 C53.0489208,8.19594536 55.5694863,6.04651163 58.5615246,6.04651163 C60.6831517,6.04651163 62.6597103,7.57132359 63.4757208,9.51867381 L60.8282202,10.896516 Z" id="Path"></path>
                <polygon id="Path" points="72.4788111 25.3488372 69.3272959 25.3488372 69.3272959 9.64278534 67.4074074 9.64278534 67.4074074 6.70246632 69.3272959 6.70246632 69.3272959 0 72.4788111 0 72.4788111 6.70246632 75.7752235 6.70246632 75.7752235 9.64278534 72.4788111 9.64278534"></polygon>
            </g>
        </g>
    </g>
</svg>