<?xml version="1.0" encoding="UTF-8"?>
<svg width="182px" height="40px" viewBox="0 0 182 40" version="1.1" xmlns="http://www.w3.org/2000/svg" xmlns:xlink="http://www.w3.org/1999/xlink">
    <title>logo-for-dark-hz</title>
    <defs>
        <linearGradient x1="13.8162258%" y1="66.4293017%" x2="83.0417091%" y2="34.8968559%" id="linearGradient-1">
            <stop stop-color="#FF595E" offset="0%"></stop>
            <stop stop-color="#D15ABB" offset="100%"></stop>
        </linearGradient>
    </defs>
    <g id="logo-for-dark-hz" stroke="none" stroke-width="1" fill="none" fill-rule="evenodd">
        <g id="dark-logo" fill-rule="nonzero">
            <polygon id="Path" fill="#FF595E" points="102 22.0607787 94.0607787 22.0607787 94.0607787 30 90.9211776 30 90.9211776 22.0607787 83 22.0607787 83 18.9211776 90.9211776 18.9211776 90.9211776 11 94.0607787 11 94.0607787 18.9211776 102 18.9211776"></polygon>
            <g id="Geist-Group" transform="translate(106, 4)" fill="#D15ABB">
                <path d="M18.6111245,24.6131834 C18.6111245,27.6116505 18.6111245,30.2054165 16.707922,32.6888094 C14.9511197,34.9330608 12.2610161,36 9.47941247,36 C4.28220563,36 0.420900554,32.6888094 0.292800385,27.3725089 L3.47700458,27.3725089 C3.51360462,30.8492591 6.02070792,33.038324 9.44281242,33.038324 C14.3655189,33.038324 15.4452203,29.3960143 15.4452203,25.1650485 L15.4452203,22.9207971 L15.3720202,22.9207971 C13.8531182,24.8707205 11.400915,26.0296372 8.8938117,26.0296372 C3.45870455,26.0296372 0,21.4307614 0,16.2064384 C0,10.926929 3.4953046,6.21768012 9.02191187,6.21768012 C11.6022153,6.21768012 13.8714183,7.37659683 15.3720202,9.4184977 L15.4452203,9.4184977 L15.4452203,6.75114972 L18.6294245,6.75114972 L18.6294245,24.6131834 L18.6111245,24.6131834 Z M3.23910426,15.9489014 C3.23910426,19.628002 5.38020708,23.1047522 9.3513123,23.1047522 C13.4505177,23.1047522 15.5916205,19.7935616 15.5916205,15.9856924 C15.5916205,12.2330097 13.2492174,9.19775166 9.31471226,9.19775166 C5.61810739,9.19775166 3.23910426,12.4353602 3.23910426,15.9489014 Z" id="Shape"></path>
                <path d="M25.6017337,16.8318855 C25.6383337,20.3086357 28.108837,23.1047522 31.7139417,23.1047522 C34.4223453,23.1047522 36.1608476,21.4675524 37.4052492,19.223301 L40.1136528,20.7869188 C38.3202504,24.1349004 35.3007464,26.0664282 31.4943414,26.0664282 C25.9311341,26.0664282 22.3626294,21.7986714 22.3626294,16.3903935 C22.3626294,10.8349515 25.5834337,6.23607563 31.4211413,6.23607563 C37.4235492,6.23607563 40.6077534,11.221257 40.278353,16.81349 L25.6017337,16.81349 L25.6017337,16.8318855 Z M36.9294486,14.109351 C36.490248,11.3868166 34.221045,9.19775166 31.4394414,9.19775166 C28.6944378,9.19775166 26.1507344,11.3868166 25.7481339,14.109351 L36.9294486,14.109351 Z" id="Shape"></path>
                <polygon id="Path" points="47.6349627 25.5329586 44.4507585 25.5329586 44.4507585 6.16249361 47.6349627 6.16249361"></polygon>
                <path d="M61.0122803,11.110884 C60.5730797,10.1175268 59.6214784,9.19775166 58.4685769,9.19775166 C57.3522755,9.19775166 56.1627739,10.0807358 56.1627739,11.2764435 C56.1627739,12.9872253 58.3038767,13.631068 60.4998796,14.5508431 C62.6775825,15.4706183 64.8369853,16.7950945 64.8369853,19.9407256 C64.8369853,23.4910577 61.9821816,26.0480327 58.523477,26.0480327 C55.3758729,26.0480327 52.9236696,24.2452734 51.9354683,21.3019928 L54.753672,20.1062851 C55.5405731,21.8722534 56.4555743,23.1047522 58.5600771,23.1047522 C60.2619793,23.1047522 61.579581,21.9458355 61.579581,20.2350537 C61.579581,16.0408789 53.1615699,17.4757282 53.1615699,11.5707716 C53.1615699,8.40674502 55.7052733,6.25447113 58.7247773,6.25447113 C60.8658801,6.25447113 62.8605827,7.7812979 63.6840838,9.73122126 L61.0122803,11.110884 Z" id="Path"></path>
                <polygon id="Path" points="72.6693956 25.5329586 69.4851914 25.5329586 69.4851914 9.71282575 67.5453889 9.71282575 67.5453889 6.75114972 69.4851914 6.75114972 69.4851914 0 72.6693956 0 72.6693956 6.75114972 76 6.75114972 76 9.71282575 72.6693956 9.71282575"></polygon>
            </g>
            <g id="Proof-Group">
                <path d="M3.19266055,13.5704514 L3.26605505,13.5704514 C4.82568807,11.5093479 7.13761468,10.3967168 9.72477064,10.3967168 C15.2293578,10.3967168 18.6972477,15.1025992 18.6972477,20.2644779 C18.6972477,25.5722754 15.3027523,30.0410397 9.68807339,30.0410397 C7.13761468,30.0410397 4.78899083,28.9284086 3.26605505,26.9037848 L3.19266055,26.9037848 L3.19266055,40 L0,40 L0,10.9256726 L3.19266055,10.9256726 L3.19266055,13.5704514 Z M3.02752294,20.0273598 C3.02752294,23.6753306 5.17431193,27.122663 9.1559633,27.122663 C13.266055,27.122663 15.412844,23.8394893 15.412844,20.0638395 C15.412844,16.3429093 13.0642202,13.3333333 9.11926606,13.3333333 C5.41284404,13.3333333 3.02752294,16.5435477 3.02752294,20.0273598 Z" id="Shape" fill="#D15ABB"></path>
                <path d="M26.1834862,12.9320565 L26.2568807,12.9320565 C27.3761468,11.4728682 28.3302752,10.3967168 30.4036697,10.3967168 C31.4862385,10.3967168 32.3486239,10.7615139 33.266055,11.2722298 L31.7431193,14.1723666 C31.1009174,13.7346101 30.6605505,13.3333333 29.8348624,13.3333333 C26.3302752,13.3333333 26.1651376,17.8020976 26.1651376,20.2279982 L26.1651376,29.5303238 L22.9724771,29.5303238 L22.9724771,10.9256726 L26.1651376,10.9256726 L26.1651376,12.9320565 L26.1834862,12.9320565 Z" id="Path" fill="#D15ABB"></path>
                <path d="M77.2293578,29.5303238 L74.0366972,29.5303238 L74.0366972,13.8258094 L72.293578,13.8258094 L72.293578,10.8891929 L74.0550459,10.8891929 L74.0550459,7.16826265 C74.0550459,5.61787506 74.0550459,3.68445052 74.8990826,2.33470132 C75.9266055,0.674874601 77.8165138,0 79.7247706,0 C80.4770642,0 81.2477064,0.164158687 82,0.40127679 L82,3.61149111 C81.2844037,3.37437301 80.6422018,3.17373461 79.853211,3.17373461 C77.266055,3.17373461 77.266055,4.99772002 77.266055,8.28089375 L77.266055,10.9074327 L82,10.9074327 L82,13.8440492 L77.266055,13.8440492 L77.266055,29.5303238 L77.2293578,29.5303238 Z" id="Path" fill="#D15ABB"></path>
                <path d="M59.6880734,10.3237574 C56.6972477,10.3237574 53.8348624,11.6005472 52.0183486,13.9717282 C50.0917431,16.4888281 50.1100917,17.875057 49.7981651,20.1915185 C49.266055,23.9671683 46.7889908,26.502508 43.3944954,26.502508 C39.8715596,26.502508 37.0091743,23.6570907 37.0091743,20.1550388 C37.0091743,16.6529868 39.8715596,13.8075695 43.3944954,13.8075695 C45.0458716,13.8075695 46.8807339,14.4094847 48.2385321,16.0510716 C48.6605505,14.9019608 49.2477064,13.8258094 49.9816514,12.877337 C47.9082569,11.1080711 45.6146789,10.3419973 43.3944954,10.3419973 C37.9449541,10.3419973 33.5045872,14.756042 33.5045872,20.1732786 C33.5045872,25.5905153 37.9449541,30.00456 43.3944954,30.00456 C46.2752294,30.00456 49.1192661,28.6183311 51.0642202,26.374829 C52.4954128,24.7332421 52.9908257,22.8910169 53.266055,20.6657547 C53.7614679,16.5800274 56.0550459,13.8622891 59.706422,13.8440492 C63.2293578,13.8258094 66.0917431,16.6894665 66.0917431,20.1915185 C66.0917431,23.6935705 63.2293578,26.5389877 59.706422,26.5389877 C58.0550459,26.5389877 56.2385321,25.8641131 54.8623853,24.3137255 C54.440367,25.4445964 53.8348624,26.5389877 53.1192661,27.4874601 C53.1192661,27.4874601 55.7614679,30.0410397 59.6880734,30.0228971 C65.1376147,29.9863201 69.5779817,25.6087551 69.5779817,20.1915185 C69.559633,14.7378021 65.1376147,10.3237574 59.6880734,10.3237574 Z" id="Path" fill="url(#linearGradient-1)"></path>
            </g>
        </g>
    </g>
</svg>